<svg id="visual" viewBox="0 0 900 600" width="900" height="600" xmlns="http://www.w3.org/2000/svg" xmlns:xlink="http://www.w3.org/1999/xlink" version="1.1"><rect width="900" height="600" fill="#000000"></rect><g><g transform="translate(297 181)"><path d="M95.9 -36.7C106.8 2.3 86.1 46.1 51.5 71.2C17 96.4 -31.2 102.9 -64.8 80.5C-98.3 58.2 -117.1 7 -103.9 -35.3C-90.6 -77.6 -45.3 -111 -1.4 -110.6C42.5 -110.1 85.1 -75.8 95.9 -36.7Z" stroke="#2b0102" fill="none" stroke-width="20"></path></g><g transform="translate(654 144)"><path d="M71.9 -22.2C81.5 6.2 69.5 42.7 43.6 61.9C17.7 81.2 -22.1 83.2 -45.8 65.4C-69.6 47.6 -77.3 10 -66.9 -19.3C-56.6 -48.7 -28.3 -69.7 1.4 -70.2C31.2 -70.6 62.3 -50.5 71.9 -22.2Z" stroke="#2b0102" fill="none" stroke-width="20"></path></g><g transform="translate(216 473)"><path d="M73.7 -20.1C85.7 12.8 78.7 55.8 52.2 76.1C25.6 96.4 -20.5 94 -51.8 71.3C-83 48.6 -99.4 5.5 -88.3 -26.3C-77.2 -58.1 -38.6 -78.5 -3.8 -77.3C30.9 -76 61.8 -53.1 73.7 -20.1Z" stroke="#2b0102" fill="none" stroke-width="20"></path></g><g transform="translate(886 541)"><path d="M57.8 -20.4C65.3 4.3 55.1 33 35 47.4C15 61.8 -14.9 61.7 -36.4 46.8C-57.9 32 -71.1 2.3 -63.6 -22.3C-56.2 -46.9 -28.1 -66.4 -1.5 -65.9C25.1 -65.5 50.3 -45 57.8 -20.4Z" stroke="#2b0102" fill="none" stroke-width="20"></path></g></g></svg>